<svg width="30" height="30" viewBox="0 0 30 30" fill="none" xmlns="http://www.w3.org/2000/svg">
            <rect width="30" height="30" rx="8" fill="#E2783C"></rect>
            <path d="M15.0003 6.66699C10.3987 6.66699 6.66699 10.3987 6.66699 15.0003C6.66699 19.602 10.3987 23.3337 15.0003 23.3337C19.602 23.3337 23.3337 19.602 23.3337 15.0003C23.3337 10.3987 19.602 6.66699 15.0003 6.66699ZM15.0003 20.0003C12.2387 20.0003 10.0003 17.762 10.0003 15.0003C10.0003 12.2387 12.2387 10.0003 15.0003 10.0003C17.762 10.0003 20.0003 12.2387 20.0003 15.0003C20.0003 17.762 17.762 20.0003 15.0003 20.0003Z" fill="#EFEADF"></path>
            <path d="M23.3337 8.33333C24.2541 8.33333 25.0003 7.58714 25.0003 6.66667C25.0003 5.74619 24.2541 5 23.3337 5C22.4132 5 21.667 5.74619 21.667 6.66667C21.667 7.58714 22.4132 8.33333 23.3337 8.33333Z" fill="#EFEADF"></path>
        </svg>