<svg width="30" height="30" viewBox="0 0 30 30" fill="none" xmlns="http://www.w3.org/2000/svg">
            <rect width="30" height="30" rx="8" fill="#E2783C"></rect>
            <path d="M21.6663 13.3337C20.658 13.3337 19.4463 12.8903 18.333 12.142V18.3337C18.333 21.0903 16.0897 23.3337 13.333 23.3337C10.5763 23.3337 8.33301 21.0903 8.33301 18.3337C8.33301 15.577 10.5763 13.3337 13.333 13.3337V16.667C12.413 16.667 11.6663 17.4153 11.6663 18.3337C11.6663 19.252 12.413 20.0003 13.333 20.0003C14.253 20.0003 14.9997 19.252 14.9997 18.3337V6.66699H18.333C18.333 8.34199 20.7847 10.0003 21.6663 10.0003V13.3337Z" fill="#EFEADF"></path>
            <path d="M21.6667 13.3333C22.5871 13.3333 23.3333 12.5871 23.3333 11.6667C23.3333 10.7462 22.5871 10 21.6667 10C20.7462 10 20 10.7462 20 11.6667C20 12.5871 20.7462 13.3333 21.6667 13.3333Z" fill="#EFEADF"></path>
            <path d="M16.6667 8.33333C17.5871 8.33333 18.3333 7.58714 18.3333 6.66667C18.3333 5.74619 17.5871 5 16.6667 5C15.7462 5 15 5.74619 15 6.66667C15 7.58714 15.7462 8.33333 16.6667 8.33333Z" fill="#EFEADF"></path>
        </svg>